<svg xmlns="http://www.w3.org/2000/svg" viewBox="0 0 129.64583 679.97919" height="2570" width="490">
    <g>
        <g transform="matrix(.308 0 0 .308 83.609 .601)">
            <path transform="translate(-60.721 -44.232)"
                d="M184 211.005l-.9-.845-5.633 5.633.845.845a50.7 50.7 0 0 1 0 72.442l-.845.845 5.633 5.633.9-.9a58.754 58.754 0 0 0 0-83.934z"
                fill="#ed1c24" />
            <path transform="translate(-146.854 -44.139)"
                d="M183.049 215.813l-5.633-5.633-.9.845a58.754 58.754 0 0 0 0 83.934l.9.9 5.633-5.633-.9-.845a50.7 50.7 0 0 1 0-72.442z"
                fill="#ed1c24" />
            <path
                d="M69.036 182.771h15.435v11.83l-2.986 23.772h-9.52l-2.929-23.772zm.507 39.432h14.421v12.731h-14.928z"
                fill="#ed1c24" />
            <circle cx="76.03" cy="208.563" r="42.285" stroke="#ed1c24" stroke-width="9.022"
                stroke-linejoin="round" fill="none" />
        </g>
        <g transform="translate(0 382.979)">
            <path
                d="M36.903-331.024l-.277-.26-1.735 1.735.26.26a15.612 15.612 0 0 1 0 22.307l-.26.26 1.735 1.735.277-.277a18.092 18.092 0 0 0 0-25.846z"
                fill="#161616" />
            <path
                d="M10.088-329.515l-1.735-1.735-.277.26a18.092 18.092 0 0 0 0 25.846l.277.277 1.735-1.735-.277-.26a15.612 15.612 0 0 1 0-22.307z"
                fill="#161616" />
            <path
                d="M20.2-326.098h4.753v3.643l-.919 7.32h-2.931l-.902-7.32zm.156 12.142h4.441v3.92h-4.597z"
                fill="#161616" />
            <ellipse cx="22.354" cy="-318.156" rx="13.021" ry="13.021" stroke="#161616"
                stroke-width="2.778" stroke-linejoin="round" fill="none" />
        </g>
    </g>
</svg>